<svg version="1.2" xmlns="http://www.w3.org/2000/svg" viewBox="0 0 1080 1080" width="1080" height="1080">
	<title>Remux_mincrop</title>
	<style>
		.s0 { fill: black } 
	</style>
	<path id="{R}" class="s0" aria-label="{R}"  d="m248 844.9c-3.5 0-17.5 0-21-0.7-58.8-1.4-68.6-16.8-68.6-63.7v-157.5c0-56-1.4-75.6-53.2-104.3 43.4-24.5 53.2-51.1 53.2-102.9v-158.9c0-46.9 9.8-62.3 68.6-63.7 3.5-0.7 16.8-0.7 21-0.7v-62.3c0 0-63 0-77.7 2.1-65.8 8.4-80.5 61.6-80.5 119v165.2c0 37.1-13.3 61.6-51.1 68.6v67.2c42 7 51.1 37.1 51.1 74.9v158.9c0 57.4 14.7 110.6 80.5 119 14.7 2.1 77.7 2.1 77.7 2.1zm440.3-471.1c0 52.5-42 91.7-120.4 91.7h-174.3l8.4-9.1v-167.3l-8.4-8.4h181.3c67.2 0 113.4 25.9 113.4 93.1zm46.2 212.1c-16.8-34.3-43.4-58.1-66.5-67.9v-1.4c57.4-19.6 106.4-73.5 106.4-142.8 0-114.8-92.4-170.8-199.5-170.8h-256.9v567h84v-219.1l-8.4-7.7h127.4c71.4 0 110.6 24.5 136.5 77l73.5 149.8h93.8zm310.1-100.8c-37.8-7-51.1-31.5-51.1-68.6v-165.2c0-57.4-14.7-110.6-80.5-119-14.7-2.1-77.7-2.1-77.7-2.1v62.3c4.2 0 17.5 0 21 0.7 58.8 1.4 68.6 16.8 68.6 63.7v158.9c0 51.8 9.1 78.4 52.5 102.9-51.1 28.7-52.5 48.3-52.5 104.3v157.5c0 46.9-9.8 62.3-68.6 63.7-3.5 0.7-17.5 0.7-21 0.7v62.3c0 0 63 0 77.7-2.1 65.8-8.4 80.5-61.6 80.5-119v-158.9c0-37.8 9.1-67.9 51.1-74.9z"/>
</svg>