<svg version="1.2" xmlns="http://www.w3.org/2000/svg" viewBox="0 0 1080 1080" width="1080" height="1080">
	<title>New Project</title>
	<style>
		.s0 { fill: #0000ff } 
	</style>
	<path id="{R}" class="s0" aria-label="{R}"  d="m294.3 818.2c-3 0-15 0-18-0.6-50.4-1.2-58.8-14.4-58.8-54.6v-135c0-48-1.2-64.8-45.6-89.4 37.2-21 45.6-43.8 45.6-88.2v-136.2c0-40.2 8.4-53.4 58.8-54.6 3-0.6 14.4-0.6 18-0.6v-53.4c0 0-54 0-66.6 1.8-56.4 7.2-69 52.8-69 102v141.6c0 31.8-11.4 52.8-43.8 58.8v57.6c36 6 43.8 31.8 43.8 64.2v136.2c0 49.2 12.6 94.8 69 102 12.6 1.8 66.6 1.8 66.6 1.8zm377.4-403.8c0 45-36 78.6-103.2 78.6h-149.4l7.2-7.8v-143.4l-7.2-7.2h155.4c57.6 0 97.2 22.2 97.2 79.8zm39.6 181.8c-14.4-29.4-37.2-49.8-57-58.2v-1.2c49.2-16.8 91.2-63 91.2-122.4 0-98.4-79.2-146.4-171-146.4h-220.2v486h72v-187.8l-7.2-6.6h109.2c61.2 0 94.8 21 117 66l63 128.4h80.4zm265.8-86.4c-32.4-6-43.8-27-43.8-58.8v-141.6c0-49.2-12.6-94.8-69-102-12.6-1.8-66.6-1.8-66.6-1.8v53.4c3.6 0 15 0 18 0.6 50.4 1.2 58.8 14.4 58.8 54.6v136.2c0 44.4 7.8 67.2 45 88.2-43.8 24.6-45 41.4-45 89.4v135c0 40.2-8.4 53.4-58.8 54.6-3 0.6-15 0.6-18 0.6v53.4c0 0 54 0 66.6-1.8 56.4-7.2 69-52.8 69-102v-136.2c0-32.4 7.8-58.2 43.8-64.2z"/>
</svg>